{"title":"Ultramarines A Warhammer 40,000 2010 DvDRip x264 Feel-Free","uid":6084031,"size":905182834,"categoryP":"video","categoryS":"movies","magnet":"?xt=urn:btih:ac85f9dda8ad709aaa337140db7e6ccaf69da752&amp;dn=Ultramarines+A+Warhammer+40%2C000+2010+DvDRip+x264+Feel-Free&amp;tr=udp%3A%2F%2Ftracker.openbittorrent.com%3A80&amp;tr=udp%3A%2F%2Fopen.demonii.com%3A1337&amp;tr=udp%3A%2F%2Ftracker.coppersurfer.tk%3A6969&amp;tr=udp%3A%2F%2Fexodus.desync.com%3A6969","seeders":0,"leechers":0,"uploader":"neon","files":-1,"time":1294240478,"description":"Genre:Animation | Sci-Fi\nLanguage:English\n &lt;a href=&quot; http://www.imdb.com/title/tt1679332/&quot; rel=&quot;nofollow&quot; target=&quot;_NEW&quot;&gt; http://www.imdb.com/title/tt1679332/&lt;/a&gt;\nSource:DVD\n\n\nFormat : Matroska\nFile size : 862 MiB\nDuration : 1h 16mn\nOverall bit rate : 1 576 Kbps\n\n\n\nVideo\nFormat settings, CABAC : Yes\nFormat settings, ReFrames : 4 frames\nCodec ID : V_MPEG4/ISO/AVC\nDuration : 1h 16mn\nBit rate : 1 200 Kbps\nWidth : 720 pixels\nHeight : 384 pixels\nDisplay aspect ratio : 1.875\nFrame rate mode : Variable\nFrame rate : 23.976 fps\nColor space : YUV\nChroma subsampling : 4:2:0\nBit depth : 8 bits\nScan type : Progressive\nBits/(Pixel*Frame) : 0.181\nStream size : 635 MiB (74%)\nWriting library : x264\n\nAudio\nID : 2\nFormat : AC-3\nFormat/Info : Audio Coding 3\nMode extension : CM (complete main)\nCodec ID : A_AC3\nDuration : 1h 16mn\nBit rate mode : Constant\nBit rate : 384 Kbps\nChannel(s) : 6 channels\nChannel positions : Front: L C R, Side: L R, LFE\nSampling rate : 48.0 KHz\nBit depth : 16 bits\nVideo delay : -1mn 5s\nStream size : 210 MiB (24%)\nLanguage : English\n\n\n\nPlot:\nA squad of Ultramarines answer a distress call from an Imperial Shrine World. A full Company of Imperial Fists was stationed there, but there is no answer from them. The squad investigates to find out what has happened there.\n","torrent":{"xt":"urn:btih:ac85f9dda8ad709aaa337140db7e6ccaf69da752","amp;dn":"Ultramarines+A+Warhammer+40%2C000+2010+DvDRip+x264+Feel-Free","amp;tr":["udp%3A%2F%2Ftracker.openbittorrent.com%3A80","udp%3A%2F%2Fopen.demonii.com%3A1337","udp%3A%2F%2Ftracker.coppersurfer.tk%3A6969","udp%3A%2F%2Fexodus.desync.com%3A6969"],"infoHash":"ac85f9dda8ad709aaa337140db7e6ccaf69da752","infoHashBuffer":{"type":"Buffer","data":[172,133,249,221,168,173,112,154,170,51,113,64,219,126,108,202,246,157,167,82]},"announce":[],"urlList":[]}}